2014001_C3_04_grf
version=1
nRows=30
nColumns=19
inDegrees=no
endheader
time	ground_force_1_vx	ground_force_1_vy	ground_force_1_vz	ground_force_1_px	ground_force_1_py	ground_force_1_pz	ground_force_1_mx	ground_force_1_my	ground_force_1_mz	ground_force_2_vx	ground_force_2_vy	ground_force_2_vz	ground_force_2_px	ground_force_2_py	ground_force_2_pz	ground_force_2_mx	ground_force_2_my	ground_force_2_mz
      0.00000000	      0.00000000	      0.00000000	      0.00000000	      0.00000000	      0.00000000	      0.00000000	      0.00000000	      0.00000000	      0.00000000	    -45.57207972	    717.68027544	    -68.88379157	      0.25979888	     -0.00200000	      0.76221734	      0.00000000	      1.02051735	      0.00000000
      0.00100000	      0.00000000	      0.00000000	      0.00000000	      0.00000000	      0.00000000	      0.00000000	      0.00000000	      0.00000000	      0.00000000	    -45.74129358	    718.76937151	    -69.65728477	      0.25980702	     -0.00200000	      0.76209869	      0.00000000	      1.02351514	      0.00000000
      0.00200000	      0.00000000	      0.00000000	      0.00000000	      0.00000000	      0.00000000	      0.00000000	      0.00000000	      0.00000000	      0.00000000	    -45.90925574	    719.82610226	    -70.43095678	      0.25981503	     -0.00200000	      0.76197954	      0.00000000	      1.02596897	      0.00000000
      0.00300000	      0.00000000	      0.00000000	      0.00000000	      0.00000000	      0.00000000	      0.00000000	      0.00000000	      0.00000000	      0.00000000	    -46.07548378	    720.84143758	    -71.20470330	      0.25982284	     -0.00200000	      0.76185976	      0.00000000	      1.02773897	      0.00000000
      0.00400000	      0.00000000	      0.00000000	      0.00000000	      0.00000000	      0.00000000	      0.00000000	      0.00000000	      0.00000000	      0.00000000	    -46.24018073	    721.82273865	    -71.97839022	      0.25983047	     -0.00200000	      0.76173945	      0.00000000	      1.02896055	      0.00000000
      0.00500000	      0.00000000	      0.00000000	      0.00000000	      0.00000000	      0.00000000	      0.00000000	      0.00000000	      0.00000000	      0.00000000	    -46.40276544	    722.76055813	    -72.75186852	      0.25983785	     -0.00200000	      0.76161846	      0.00000000	      1.02949702	      0.00000000
      0.00600000	      0.00000000	      0.00000000	      0.00000000	      0.00000000	      0.00000000	      0.00000000	      0.00000000	      0.00000000	      0.00000000	    -46.56350240	    723.66291285	    -73.52505624	      0.25984502	     -0.00200000	      0.76149692	      0.00000000	      1.02948744	      0.00000000
      0.00700000	      0.00000000	      0.00000000	      0.00000000	      0.00000000	      0.00000000	      0.00000000	      0.00000000	      0.00000000	      0.00000000	    -46.72172107	    724.51999784	    -74.29774106	      0.25985189	     -0.00200000	      0.76137466	      0.00000000	      1.02879974	      0.00000000
      0.00800000	      0.00000000	      0.00000000	      0.00000000	      0.00000000	      0.00000000	      0.00000000	      0.00000000	      0.00000000	      0.00000000	    -46.87774181	    725.34024715	    -75.06990433	      0.25985850	     -0.00200000	      0.76125180	      0.00000000	      1.02757527	      0.00000000
      0.00900000	      0.00000000	      0.00000000	      0.00000000	      0.00000000	      0.00000000	      0.00000000	      0.00000000	      0.00000000	      0.00000000	    -47.03078978	    726.11361742	    -75.84125921	      0.25986475	     -0.00200000	      0.76112815	      0.00000000	      1.02569019	      0.00000000
      0.01000000	      0.00000000	      0.00000000	      0.00000000	      0.00000000	      0.00000000	      0.00000000	      0.00000000	      0.00000000	      0.00000000	    -47.18127102	    726.84890032	    -76.61184669	      0.25987069	     -0.00200000	      0.76100384	      0.00000000	      1.02328789	      0.00000000
      0.01100000	      0.00000000	      0.00000000	      0.00000000	      0.00000000	      0.00000000	      0.00000000	      0.00000000	      0.00000000	      0.00000000	    -47.32829891	    727.53569484	    -77.38132030	      0.25987620	     -0.00200000	      0.76087867	      0.00000000	      1.02025686	      0.00000000
      0.01200000	      0.00000000	      0.00000000	      0.00000000	      0.00000000	      0.00000000	      0.00000000	      0.00000000	      0.00000000	      0.00000000	    -47.47236893	    728.18320990	    -78.14977318	      0.25988134	     -0.00200000	      0.76075280	      0.00000000	      1.01674005	      0.00000000
      0.01300000	      0.00000000	      0.00000000	      0.00000000	      0.00000000	      0.00000000	      0.00000000	      0.00000000	      0.00000000	      0.00000000	    -47.61247896	    728.78071666	    -78.91680300	      0.25988600	     -0.00200000	      0.76062602	      0.00000000	      1.01263754	      0.00000000
      0.01400000	      0.00000000	      0.00000000	      0.00000000	      0.00000000	      0.00000000	      0.00000000	      0.00000000	      0.00000000	      0.00000000	    -47.74921760	    729.33769226	    -79.68257368	      0.25989023	     -0.00200000	      0.76049850	      0.00000000	      1.00808556	      0.00000000
      0.01500000	      0.00000000	      0.00000000	      0.00000000	      0.00000000	      0.00000000	      0.00000000	      0.00000000	      0.00000000	      0.00000000	    -47.88148031	    729.84328866	    -80.44661954	      0.25989391	     -0.00200000	      0.76037004	      0.00000000	      1.00299476	      0.00000000
      0.01600000	      0.00000000	      0.00000000	      0.00000000	      0.00000000	      0.00000000	      0.00000000	      0.00000000	      0.00000000	      0.00000000	    -48.00996557	    730.30722141	    -81.20916784	      0.25989711	     -0.00200000	      0.76024084	      0.00000000	      0.99749250	      0.00000000
      0.01700000	      0.00000000	      0.00000000	      0.00000000	      0.00000000	      0.00000000	      0.00000000	      0.00000000	      0.00000000	      0.00000000	    -48.13348129	    730.71834445	    -81.96967095	      0.25989969	     -0.00200000	      0.76011068	      0.00000000	      0.99150107	      0.00000000
      0.01800000	      0.00000000	      0.00000000	      0.00000000	      0.00000000	      0.00000000	      0.00000000	      0.00000000	      0.00000000	      0.00000000	    -48.25281724	    731.08673096	    -82.72842318	      0.25990176	     -0.00200000	      0.75997975	      0.00000000	      0.98514261	      0.00000000
      0.01900000	      0.00000000	      0.00000000	      0.00000000	      0.00000000	      0.00000000	      0.00000000	      0.00000000	      0.00000000	      0.00000000	    -48.36668074	    731.40102625	    -83.48480985	      0.25990314	     -0.00200000	      0.75984785	      0.00000000	      0.97835690	      0.00000000
      0.02000000	      0.00000000	      0.00000000	      0.00000000	      0.00000000	      0.00000000	      0.00000000	      0.00000000	      0.00000000	      0.00000000	    -48.47595468	    731.67157173	    -84.23918486	      0.25990394	     -0.00200000	      0.75971516	      0.00000000	      0.97125662	      0.00000000
      0.02100000	      0.00000000	      0.00000000	      0.00000000	      0.00000000	      0.00000000	      0.00000000	      0.00000000	      0.00000000	      0.00000000	    -48.57923090	    731.88683391	    -84.99089628	      0.25990398	     -0.00200000	      0.75958148	      0.00000000	      0.96379644	      0.00000000
      0.02200000	      0.00000000	      0.00000000	      0.00000000	      0.00000000	      0.00000000	      0.00000000	      0.00000000	      0.00000000	      0.00000000	    -48.67750034	    732.05745220	    -85.74033529	      0.25990339	     -0.00200000	      0.75944701	      0.00000000	      0.95607757	      0.00000000
      0.02300000	      0.00000000	      0.00000000	      0.00000000	      0.00000000	      0.00000000	      0.00000000	      0.00000000	      0.00000000	      0.00000000	    -48.76925051	    732.17168450	    -86.48679033	      0.25990198	     -0.00200000	      0.75931155	      0.00000000	      0.94807102	      0.00000000
      0.02400000	      0.00000000	      0.00000000	      0.00000000	      0.00000000	      0.00000000	      0.00000000	      0.00000000	      0.00000000	      0.00000000	    -48.85558039	    732.24031925	    -87.23071218	      0.25989989	     -0.00200000	      0.75917529	      0.00000000	      0.93986429	      0.00000000
      0.02500000	      0.00000000	      0.00000000	      0.00000000	      0.00000000	      0.00000000	      0.00000000	      0.00000000	      0.00000000	      0.00000000	    -48.93489555	    732.25143552	    -87.97128871	      0.25989694	     -0.00200000	      0.75903803	      0.00000000	      0.93144168	      0.00000000
      0.02600000	      0.00000000	      0.00000000	      0.00000000	      0.00000000	      0.00000000	      0.00000000	      0.00000000	      0.00000000	      0.00000000	    -49.00840670	    732.21600056	    -88.70904148	      0.25989327	     -0.00200000	      0.75889996	      0.00000000	      0.92287372	      0.00000000
      0.02700000	      0.00000000	      0.00000000	      0.00000000	      0.00000000	      0.00000000	      0.00000000	      0.00000000	      0.00000000	      0.00000000	    -49.07441698	    732.12179542	    -89.44306895	      0.25988868	     -0.00200000	      0.75876088	      0.00000000	      0.91415652	      0.00000000
      0.02800000	      0.00000000	      0.00000000	      0.00000000	      0.00000000	      0.00000000	      0.00000000	      0.00000000	      0.00000000	      0.00000000	    -49.13423583	    731.98002577	    -90.17395973	      0.25988332	     -0.00200000	      0.75862098	      0.00000000	      0.90534482	      0.00000000
      0.02900000	      0.00000000	      0.00000000	      0.00000000	      0.00000000	      0.00000000	      0.00000000	      0.00000000	      0.00000000	      0.00000000	    -49.18606766	    731.77817464	    -90.90071544	      0.25987697	     -0.00200000	      0.75848004	      0.00000000	      0.89644559	      0.00000000
